<?xml version="1.0" standalone="no"?>
<!DOCTYPE svg PUBLIC "-//W3C//DTD SVG 20010904//EN"
 "http://www.w3.org/TR/2001/REC-SVG-20010904/DTD/svg10.dtd">
<svg version="1.0" xmlns="http://www.w3.org/2000/svg"
 width="118.000000pt" height="128.000000pt" viewBox="0 0 118.000000 128.000000"
 preserveAspectRatio="xMidYMid meet">
<metadata>
Created by potrace 1.16, written by Peter Selinger 2001-2019
</metadata>
<g transform="translate(0.000000,128.000000) scale(0.100000,-0.100000)"
fill="#000000" stroke="none">
<path d="M484 865 c-4 -8 -3 -26 0 -40 6 -24 4 -25 -39 -25 l-45 0 0 -45 c0
-49 -1 -50 -31 -35 -27 15 -59 -4 -59 -35 0 -31 32 -50 59 -35 29 15 29 14 24
-35 l-4 -45 46 0 c44 0 45 1 39 25 -8 31 10 55 42 55 30 0 49 -32 34 -60 -11
-21 -14 -20 53 -24 l27 -2 1 93 c1 51 2 103 2 116 1 19 -4 22 -41 25 -39 3
-42 5 -36 28 4 14 1 31 -6 39 -16 19 -59 19 -66 0z"/>
</g>
</svg>
