<?xml version="1.0" standalone="no"?>
<!DOCTYPE svg PUBLIC "-//W3C//DTD SVG 20010904//EN"
 "http://www.w3.org/TR/2001/REC-SVG-20010904/DTD/svg10.dtd">
<svg version="1.0" xmlns="http://www.w3.org/2000/svg"
 width="199.000000pt" height="212.000000pt" viewBox="0 0 199.000000 212.000000"
 preserveAspectRatio="xMidYMid meet">
<metadata>
Created by potrace 1.16, written by Peter Selinger 2001-2019
</metadata>
<g transform="translate(0.000000,212.000000) scale(0.100000,-0.100000)"
fill="#000000" stroke="none">
<path d="M770 1445 c-8 -10 -11 -31 -7 -59 7 -52 2 -56 -82 -56 l-57 0 -2 -66
c-1 -36 -4 -69 -7 -74 -3 -5 -21 -2 -40 6 -44 18 -79 5 -92 -33 -21 -58 29
-109 82 -85 50 23 54 18 48 -58 l-6 -70 72 0 71 0 -2 45 c-2 75 53 109 111 69
21 -15 23 -22 17 -64 -7 -54 -7 -55 82 -59 l52 -2 0 185 c0 137 -3 187 -12
193 -7 4 -35 10 -63 13 l-50 5 0 49 c-1 35 -6 52 -20 62 -25 19 -79 18 -95 -1z"/>
</g>
</svg>
