<?xml version="1.0" standalone="no"?>
<!DOCTYPE svg PUBLIC "-//W3C//DTD SVG 20010904//EN"
 "http://www.w3.org/TR/2001/REC-SVG-20010904/DTD/svg10.dtd">
<svg version="1.0" xmlns="http://www.w3.org/2000/svg"
 width="130.000000pt" height="154.000000pt" viewBox="0 0 130.000000 154.000000"
 preserveAspectRatio="xMidYMid meet">
<metadata>
Created by potrace 1.16, written by Peter Selinger 2001-2019
</metadata>
<g transform="translate(0.000000,154.000000) scale(0.100000,-0.100000)"
fill="#000000" stroke="none">
<path d="M473 920 c-47 -19 -54 -72 -23 -173 54 -174 232 -324 396 -335 89 -6
99 9 94 133 -2 63 -8 73 -55 91 -42 15 -70 15 -122 -1 -29 -9 -119 77 -107
103 4 9 9 37 12 62 4 53 -27 110 -68 121 -35 10 -101 9 -127 -1z m122 -65 c32
-31 31 -42 -2 -77 l-27 -28 40 -57 c43 -63 127 -133 159 -133 11 1 29 7 39 15
28 21 63 19 76 -5 6 -12 10 -40 8 -63 l-3 -42 -47 2 c-96 3 -240 109 -308 227
-39 69 -58 149 -40 171 20 24 77 19 105 -10z"/>
</g>
</svg>
